<svg width="24" height="24" viewBox="0 0 24 24" fill="none" xmlns="http://www.w3.org/2000/svg">
<path d="M22.6293 7.61031C22.6173 6.71055 22.4489 5.81973 22.1315 4.9777C21.8563 4.26746 21.436 3.62243 20.8974 3.08383C20.3588 2.54523 19.7138 2.1249 19.0035 1.8497C18.1723 1.53768 17.2942 1.36897 16.4065 1.35074C15.2637 1.29966 14.9013 1.2854 12.0003 1.2854C9.09916 1.2854 8.72731 1.2854 7.59277 1.35074C6.70552 1.3691 5.82782 1.53781 4.99699 1.8497C4.28664 2.12471 3.64151 2.54497 3.10288 3.0836C2.56426 3.62222 2.144 4.26735 1.86899 4.9777C1.55634 5.80827 1.38799 6.68618 1.37122 7.57348C1.32013 8.71753 1.30469 9.07987 1.30469 11.981C1.30469 14.8821 1.30469 15.2527 1.37122 16.3884C1.38904 17.2771 1.55654 18.1538 1.86899 18.9866C2.14446 19.6967 2.56503 20.3416 3.10384 20.88C3.64264 21.4184 4.28783 21.8385 4.99818 22.1134C5.82673 22.438 6.70459 22.6188 7.59396 22.648C8.738 22.6991 9.10034 22.7145 12.0014 22.7145C14.9025 22.7145 15.2744 22.7145 16.4089 22.648C17.2965 22.6305 18.1747 22.4622 19.0059 22.1502C19.7159 21.8747 20.3608 21.4543 20.8994 20.9157C21.4379 20.3772 21.8584 19.7323 22.1339 19.0222C22.4463 18.1906 22.6138 17.3139 22.6317 16.4241C22.6827 15.2812 22.6982 14.9189 22.6982 12.0166C22.6958 9.11551 22.6958 8.74723 22.6293 7.61031ZM11.9931 17.4671C8.95897 17.4671 6.501 15.0092 6.501 11.975C6.501 8.94087 8.95897 6.4829 11.9931 6.4829C13.4497 6.4829 14.8467 7.06153 15.8766 8.09151C16.9066 9.12148 17.4852 10.5184 17.4852 11.975C17.4852 13.4316 16.9066 14.8286 15.8766 15.8585C14.8467 16.8885 13.4497 17.4671 11.9931 17.4671ZM17.7038 7.56042C17.5356 7.56057 17.369 7.52755 17.2136 7.46325C17.0581 7.39895 16.9169 7.30462 16.7979 7.18567C16.679 7.06672 16.5846 6.92547 16.5203 6.77003C16.456 6.61458 16.423 6.44798 16.4232 6.27975C16.4232 6.11165 16.4563 5.9452 16.5206 5.78989C16.5849 5.63459 16.6792 5.49347 16.7981 5.37461C16.917 5.25574 17.0581 5.16145 17.2134 5.09712C17.3687 5.03279 17.5351 4.99968 17.7032 4.99968C17.8713 4.99968 18.0378 5.03279 18.1931 5.09712C18.3484 5.16145 18.4895 5.25574 18.6084 5.37461C18.7273 5.49347 18.8215 5.63459 18.8859 5.78989C18.9502 5.9452 18.9833 6.11165 18.9833 6.27975C18.9833 6.9878 18.4107 7.56042 17.7038 7.56042Z" fill="#3461FF"/>
<path d="M11.9933 15.5426C13.9636 15.5426 15.5609 13.9453 15.5609 11.975C15.5609 10.0047 13.9636 8.40747 11.9933 8.40747C10.023 8.40747 8.42578 10.0047 8.42578 11.975C8.42578 13.9453 10.023 15.5426 11.9933 15.5426Z" fill="#3461FF"/>
</svg>
