<svg width="114" height="110" viewBox="0 0 114 110" fill="none" xmlns="http://www.w3.org/2000/svg">
<path d="M110.749 17.7056L58.2487 0.205604C57.3579 -0.0685347 56.4052 
-0.0685347 55.5143 0.205604L3.06902 17.7056H2.95965L2.41277 17.979H2.35808L1.81121 
18.3072C1.81121 18.3619 1.75652 18.3619 1.70183 18.4165L1.26433 18.7994L0.881522 
19.2369C0.881522 19.2915 0.826834 19.2915 0.826834 19.3462L0.498709 19.8384C0.498709 
19.8931 0.498709 19.8931 0.444021 19.9478L0.225272 20.44L0.0612095 21.0415V21.2056C0.00726786
21.4199 -0.0112061 21.6416 0.00652176 21.8619V65.6119C0.00652176 66.7722 0.467458 67.885 1.28793 
68.7055C2.1084 69.5259 3.2212 69.9869 4.38152 69.9869C5.54184 69.9869 6.65464 69.5259 7.47511 
68.7055C8.29559 67.885 8.75652 66.7722 8.75652 65.6119V27.9322L27.1315 34.0572C23.6794 39.5828 
21.8595 45.9716 21.8815 52.4869C21.8835 58.4123 23.3899 64.2402 26.2594 69.4245C29.1289 74.6087 
33.2677 78.9796 38.2878 82.1275C27.8556 86.074 18.9495 93.2372 12.8581 102.581C12.2372 103.562 
12.0268 104.749 12.2723 105.884C12.5178 107.02 13.1995 108.013 14.1706 108.651C14.6471 108.967 
15.1816 109.185 15.743 109.292C16.3043 109.4 16.8815 109.395 17.4411 109.278C18.0006 109.161 
18.5314 108.934 19.0026 108.611C19.4738 108.287 19.8761 107.873 20.1862 107.393C24.1572 101.276 
29.5943 96.2492 36.003 92.769C42.4117 89.2887 49.5888 87.4657 56.8815 87.4657C64.1743 87.4657 
71.3513 89.2887 77.76 92.769C84.1687 96.2492 89.6058 101.276 93.5768 107.393C93.9762 108 94.5203
 108.497 95.1599 108.841C95.7996 109.184 96.5148 109.364 97.2409 109.362C98.079 109.371 98.8997 109.123 
 99.5925 108.651C100.564 108.013 101.245 107.02 101.491 105.884C101.736 104.749 101.526 103.562 100.905 
 102.581C94.8136 93.2372 85.9075 86.074 75.4753 82.1275C80.4954 78.9796 84.6341 74.6087 87.5036 69.4245C90.3732 
 64.2402 91.8795 58.4123 91.8815 52.4869C91.9036 45.9716 90.0836 39.5828 86.6315 34.0572L110.749 26.0181C111.624 
 25.7304 112.386 25.1737 112.926 24.4274C113.467 23.6811 113.758 22.7832 113.758 21.8619C113.758 20.9405 113.467 
 20.0426 112.926 19.2963C112.386 18.55 111.624 17.9933 110.749 17.7056ZM56.8815 78.7369C49.9196 78.7369 43.2428 
 75.9712 38.32 71.0484C33.3971 66.1256 30.6315 59.4488 30.6315 52.4869C30.6421 46.8854 32.4221 41.4305 35.7175 
 36.9009L55.5143 43.5181C56.4024 43.8102 57.3607 43.8102 58.2487 43.5181L78.0456 36.9009C81.3409 41.4305 83.121 
 46.8854 83.1315 52.4869C83.1315 59.4488 80.3659 66.1256 75.4431 71.0484C70.5203 75.9712 63.8435 78.7369 56.8815 
 78.7369Z" fill="#052dc1"/>
</svg>
