<svg width="140" height="112" viewBox="0 0 140 112" fill="currentColor" xmlns="http://www.w3.org/2000/svg">
<g clip-path="url(#clip0_100_12507)">
<path d="M35 14C35 6.27813 41.2781 0 49 0H126C133.722 0 140 6.27813 140 14V77C140 84.7219 133.722 91 126 91H73.675C71.0937 85.4219 67.1344 80.6094 62.2125 77H84V70C84 66.1281 87.1281 63 91 63H105C108.872 63 112 66.1281 112 70V77H126V14H49V24.7406C44.8875 22.3562 40.0969 21 35 21V14ZM35 28C37.7578 28 40.4885 28.5432 43.0364 29.5985C45.5842 30.6539 47.8992 32.2007 49.8492 34.1508C51.7993 36.1008 53.3461 38.4158 54.4015 40.9636C55.4568 43.5115 56 46.2422 56 49C56 51.7578 55.4568 54.4885 54.4015 57.0364C53.3461 59.5842 51.7993 61.8992 49.8492 63.8492C47.8992 65.7993 45.5842 67.3461 43.0364 68.4015C40.4885 69.4568 37.7578 70 35 70C32.2422 70 29.5115 69.4568 26.9636 68.4015C24.4158 67.3461 22.1008 65.7993 20.1508 63.8492C18.2007 61.8992 16.6539 59.5842 15.5985 57.0364C14.5432 54.4885 14 51.7578 14 49C14 46.2422 14.5432 43.5115 15.5985 40.9636C16.6539 38.4158 18.2007 36.1008 20.1508 34.1508C22.1008 32.2007 24.4158 30.6539 26.9636 29.5985C29.5115 28.5432 32.2422 28 35 28ZM29.1594 77H40.8188C56.9406 77 70 90.0594 70 106.159C70 109.375 67.3969 112 64.1594 112H5.84063C2.60313 112 0 109.397 0 106.159C0 90.0594 13.0594 77 29.1594 77Z" fill="white"/>
</g>
<defs>
<clipPath id="clip0_100_12507">
<rect width="140" height="112" fill="none"/>
</clipPath>
</defs>
</svg>
