<svg width="56" height="56" viewBox="0 0 56 56" fill="none" xmlns="http://www.w3.org/2000/svg">
<g filter="url(#filter0_d_105_12529)">
<path d="M47.25 8.75H8.75C7.82174 8.75 6.9315 9.11875 6.27513 9.77513C5.61875 10.4315 5.25 11.3217 5.25 12.25V43.75C5.25 44.6783 5.61875 45.5685 6.27513 46.2249C6.9315 46.8813 7.82174 47.25 8.75 47.25H11.6813C12.0126 47.2509 12.3373 47.1566 12.6165 46.9782C12.8958 46.7998 13.1178 46.5448 13.2562 46.2437C14.1125 44.4518 15.4584 42.9387 17.1385 41.8795C18.8185 40.8203 20.764 40.2582 22.75 40.2582C24.736 40.2582 26.6815 40.8203 28.3615 41.8795C30.0416 42.9387 31.3875 44.4518 32.2437 46.2437C32.3822 46.5448 32.6042 46.7998 32.8835 46.9782C33.1627 47.1566 33.4874 47.2509 33.8188 47.25H47.25C48.1783 47.25 49.0685 46.8813 49.7249 46.2249C50.3813 45.5685 50.75 44.6783 50.75 43.75V12.25C50.75 11.3217 50.3813 10.4315 49.7249 9.77513C49.0685 9.11875 48.1783 8.75 47.25 8.75V8.75ZM22.75 36.75C21.3655 36.75 20.0122 36.3395 18.861 35.5703C17.7099 34.8011 16.8127 33.7079 16.2828 32.4288C15.753 31.1497 15.6144 29.7422 15.8845 28.3844C16.1546 27.0265 16.8213 25.7792 17.8003 24.8003C18.7792 23.8213 20.0265 23.1546 21.3844 22.8845C22.7422 22.6144 24.1497 22.753 25.4288 23.2828C26.7079 23.8127 27.8011 24.7099 28.5703 25.861C29.3395 27.0122 29.75 28.3655 29.75 29.75C29.7442 31.6047 29.0049 33.3819 27.6934 34.6934C26.3819 36.0049 24.6047 36.7442 22.75 36.75ZM47.25 43.75H34.8687C34.1105 42.435 33.1426 41.2528 32.0031 40.25H42C42.4641 40.25 42.9092 40.0656 43.2374 39.7374C43.5656 39.4092 43.75 38.9641 43.75 38.5V17.5C43.75 17.0359 43.5656 16.5908 43.2374 16.2626C42.9092 15.9344 42.4641 15.75 42 15.75H14C13.5359 15.75 13.0908 15.9344 12.7626 16.2626C12.4344 16.5908 12.25 17.0359 12.25 17.5V38.5C12.2522 38.8862 12.3822 39.2609 12.6196 39.5656C12.857 39.8702 13.1885 40.0878 13.5625 40.1844C12.3954 41.2031 11.405 42.4079 10.6312 43.75H8.75V12.25H47.25V43.75Z" fill="#052DC1"/>
</g>
<defs>
<filter id="filter0_d_105_12529" x="-4" y="0" width="64" height="64" filterUnits="userSpaceOnUse" color-interpolation-filters="sRGB">
<feFlood flood-opacity="0" result="BackgroundImageFix"/>
<feColorMatrix in="SourceAlpha" type="matrix" values="0 0 0 0 0 0 0 0 0 0 0 0 0 0 0 0 0 0 127 0" result="hardAlpha"/>
<feOffset dy="4"/>
<feGaussianBlur stdDeviation="2"/>
<feComposite in2="hardAlpha" operator="out"/>
<feColorMatrix type="matrix" values="0 0 0 0 0 0 0 0 0 0 0 0 0 0 0 0 0 0 0.25 0"/>
<feBlend mode="normal" in2="BackgroundImageFix" result="effect1_dropShadow_105_12529"/>
<feBlend mode="normal" in="SourceGraphic" in2="effect1_dropShadow_105_12529" result="shape"/>
</filter>
</defs>
</svg>
