<svg width="56" height="56" viewBox="0 0 56 56" fill="none" xmlns="http://www.w3.org/2000/svg">
<path d="M49.875 43.75H48.125V8.75C48.125 8.28587 47.9406 7.84075 47.6124 7.51256C47.2842 7.18437 46.8391 7 46.375 7H34.125C33.6609 7 33.2158 7.18437 32.8876 7.51256C32.5594 7.84075 32.375 8.28587 32.375 8.75V17.5H21.875C21.4109 17.5 20.9658 17.6844 20.6376 18.0126C20.3094 18.3408 20.125 18.7859 20.125 19.25V28H9.625C9.16087 28 8.71575 28.1844 8.38756 28.5126C8.05937 28.8408 7.875 29.2859 7.875 29.75V43.75H6.125C5.66087 43.75 5.21575 43.9344 4.88756 44.2626C4.55937 44.5908 4.375 45.0359 4.375 45.5C4.375 45.9641 4.55937 46.4092 4.88756 46.7374C5.21575 47.0656 5.66087 47.25 6.125 47.25H49.875C50.3391 47.25 50.7842 47.0656 51.1124 46.7374C51.4406 46.4092 51.625 45.9641 51.625 45.5C51.625 45.0359 51.4406 44.5908 51.1124 44.2626C50.7842 43.9344 50.3391 43.75 49.875 43.75ZM23.625 21H32.375V43.75H23.625V21ZM11.375 31.5H20.125V43.75H11.375V31.5Z" fill="#052DC1"/>
</svg>
