<svg width="56" height="56" viewBox="0 0 56 56" fill="none" xmlns="http://www.w3.org/2000/svg">
<path d="M45.6973 31.5C45.7025 32.2177 45.4842 32.9193 45.0726 33.5072C44.661 34.0952 44.0766 34.5405 43.4004 34.7812L31.9817 38.9812L27.7817 50.4C27.533 51.0698 27.0854 51.6475 26.4988 52.0554C25.9122 52.4634 25.2149 52.6821 24.5004 52.6821C23.7859 52.6821 23.0886 52.4634 22.502 52.0554C21.9155 51.6475 21.4678 51.0698 21.2192 50.4L17.0192 38.9812L5.60041 34.7812C4.93059 34.5326 4.35291 34.085 3.94496 33.4984C3.53702 32.9118 3.31836 32.2145 3.31836 31.5C3.31836 30.7855 3.53702 30.0882 3.94496 29.5016C4.35291 28.915 4.93059 28.4674 5.60041 28.2188L17.0192 24.0188L21.2192 12.6C21.4678 11.9302 21.9155 11.3525 22.502 10.9446C23.0886 10.5366 23.7859 10.3179 24.5004 10.3179C25.2149 10.3179 25.9122 10.5366 26.4988 10.9446C27.0854 11.3525 27.533 11.9302 27.7817 12.6L31.9817 24.0188L43.4004 28.2188C44.0766 28.4595 44.661 28.9048 45.0726 29.4928C45.4842 30.0807 45.7025 30.7823 45.6973 31.5V31.5ZM33.2504 10.5H36.7504V14C36.7504 14.4641 36.9348 14.9092 37.263 15.2374C37.5912 15.5656 38.0363 15.75 38.5004 15.75C38.9645 15.75 39.4097 15.5656 39.7379 15.2374C40.066 14.9092 40.2504 14.4641 40.2504 14V10.5H43.7504C44.2145 10.5 44.6597 10.3156 44.9879 9.98744C45.316 9.65925 45.5004 9.21413 45.5004 8.75C45.5004 8.28587 45.316 7.84075 44.9879 7.51256C44.6597 7.18437 44.2145 7 43.7504 7H40.2504V3.5C40.2504 3.03587 40.066 2.59075 39.7379 2.26256C39.4097 1.93437 38.9645 1.75 38.5004 1.75C38.0363 1.75 37.5912 1.93437 37.263 2.26256C36.9348 2.59075 36.7504 3.03587 36.7504 3.5V7H33.2504C32.7863 7 32.3412 7.18437 32.013 7.51256C31.6848 7.84075 31.5004 8.28587 31.5004 8.75C31.5004 9.21413 31.6848 9.65925 32.013 9.98744C32.3412 10.3156 32.7863 10.5 33.2504 10.5ZM52.5004 17.5H50.7504V15.75C50.7504 15.2859 50.566 14.8408 50.2379 14.5126C49.9097 14.1844 49.4645 14 49.0004 14C48.5363 14 48.0912 14.1844 47.763 14.5126C47.4348 14.8408 47.2504 15.2859 47.2504 15.75V17.5H45.5004C45.0363 17.5 44.5912 17.6844 44.263 18.0126C43.9348 18.3408 43.7504 18.7859 43.7504 19.25C43.7504 19.7141 43.9348 20.1592 44.263 20.4874C44.5912 20.8156 45.0363 21 45.5004 21H47.2504V22.75C47.2504 23.2141 47.4348 23.6592 47.763 23.9874C48.0912 24.3156 48.5363 24.5 49.0004 24.5C49.4645 24.5 49.9097 24.3156 50.2379 23.9874C50.566 23.6592 50.7504 23.2141 50.7504 22.75V21H52.5004C52.9645 21 53.4097 20.8156 53.7379 20.4874C54.066 20.1592 54.2504 19.7141 54.2504 19.25C54.2504 18.7859 54.066 18.3408 53.7379 18.0126C53.4097 17.6844 52.9645 17.5 52.5004 17.5Z" fill="#052DC1"/>
</svg>
