<svg width="24" height="24" viewBox="0 0 24 24" fill="none" xmlns="http://www.w3.org/2000/svg">
<mask id="mask0_65_77" style="mask-type:luminance" maskUnits="userSpaceOnUse" x="0" y="0" width="24" height="24">
<path d="M24 0H0V24H24V0Z" fill="white"/>
</mask>
<g mask="url(#mask0_65_77)">
<path d="M12 0C5.373 0 0 5.373 0 12C0 18.628 5.373 24 12 24C18.628 24 24 18.628 24 12C24 5.373 18.628 0 12 0ZM16.615 13.539C16.615 13.539 17.676 14.586 17.938 15.073C17.945 15.083 17.949 15.092 17.951 15.097C18.058 15.276 18.083 15.415 18.03 15.519C17.943 15.691 17.642 15.776 17.54 15.784H15.665C15.535 15.784 15.262 15.75 14.932 15.523C14.679 15.345 14.429 15.054 14.185 14.77C13.821 14.347 13.506 13.983 13.189 13.983C13.148 13.982 13.108 13.989 13.07 14.001C12.83 14.079 12.523 14.421 12.523 15.334C12.523 15.619 12.298 15.783 12.139 15.783H11.28C10.988 15.783 9.464 15.68 8.114 14.256C6.461 12.513 4.974 9.015 4.961 8.983C4.867 8.756 5.06099 8.63499 5.27299 8.63499H7.166C7.419 8.63499 7.50101 8.789 7.55901 8.925C7.62601 9.084 7.874 9.715 8.28 10.425C8.939 11.583 9.343 12.052 9.666 12.052C9.727 12.052 9.787 12.036 9.84 12.007C10.262 11.773 10.184 10.266 10.165 9.95399C10.165 9.89499 10.164 9.28 9.94701 8.985C9.79201 8.771 9.529 8.69 9.369 8.66C9.434 8.571 9.519 8.49801 9.617 8.44901C9.907 8.30401 10.43 8.283 10.949 8.283H11.238C11.8 8.29 11.945 8.32601 12.149 8.37801C12.561 8.47601 12.57 8.74301 12.534 9.65401C12.523 9.91301 12.511 10.205 12.511 10.55C12.511 10.625 12.508 10.705 12.508 10.79C12.495 11.254 12.48 11.78 12.808 11.996C12.85 12.023 12.9 12.037 12.95 12.038C13.064 12.038 13.406 12.038 14.334 10.446C14.62 9.934 14.868 9.402 15.078 8.854C15.096 8.821 15.151 8.72101 15.216 8.68201C15.264 8.65801 15.317 8.646 15.371 8.646H17.597C17.84 8.646 18.006 8.682 18.038 8.776C18.093 8.925 18.028 9.379 17.011 10.755L16.558 11.354C15.636 12.561 15.636 12.623 16.615 13.539Z" fill="#3461FF"/>
</g>
</svg>
