<svg width="97" height="44" viewBox="0 0 97 44" fill="none" xmlns="http://www.w3.org/2000/svg">
<path d="M4.31604 22.0373L3.28536 24.6261C3.19126 24.8594 2.86413 24.8504 2.78346 24.6126L0.0140686 16.4513C-0.0441873 16.2763 0.085768 16.0969 0.269498 16.0969H1.63179C2.07543 16.0969 2.4653 16.3795 2.60422 16.8013L4.32052 21.9789C4.32501 21.9969 4.32501 22.0193 4.31604 22.0373ZM18.6515 17.1288L14.9321 28.027C14.8962 28.1347 14.7931 28.2065 14.6766 28.2065H12.5436C12.4271 28.2065 12.3285 28.1347 12.2881 28.027L9.65766 20.3727C9.59493 20.1932 9.34398 20.1932 9.28124 20.3727L6.58354 28.0315C6.54769 28.1392 6.44462 28.211 6.33259 28.211H4.19505C4.13231 28.211 4.0875 28.1481 4.10991 28.0898L8.34466 16.2718C8.38051 16.1642 8.48358 16.0924 8.60009 16.0924H9.46049C10.1506 16.0924 10.76 16.5321 10.9796 17.1826L13.5474 24.7876C13.5743 24.8728 13.6952 24.8728 13.7221 24.7876L16.6125 16.2718C16.6484 16.1642 16.7514 16.0879 16.8679 16.0879H17.9121C18.4453 16.0924 18.8218 16.6218 18.6515 17.1288Z" fill="#343434"/>
<path d="M30.8888 22.1179C30.8888 22.2256 30.8844 22.3557 30.8799 22.5127V22.5172C30.8709 22.7505 30.6782 22.9344 30.4452 22.9344H24.9064C24.754 22.9344 24.6465 22.7819 24.7003 22.6383L25.0812 21.6557C25.2201 21.2923 25.5696 21.0545 25.955 21.0545H28.1911C28.2942 21.0545 28.3749 20.9603 28.3569 20.8616C28.2987 20.4892 28.1867 20.1392 28.0209 19.8207C27.7475 19.2823 27.3756 18.865 26.8961 18.5734C26.4211 18.2773 25.8609 18.1292 25.2156 18.1292C24.5882 18.1292 24.0236 18.2773 23.5262 18.5734C23.0288 18.8695 22.6479 19.2868 22.3835 19.8341C22.2042 20.202 22.0788 20.6148 22.025 21.059C21.9264 21.8532 21.9264 22.6114 22.0698 23.0735C22.1818 23.4325 22.267 23.7869 22.4373 24.101C22.7375 24.6618 23.1677 25.097 23.7278 25.4066C24.288 25.7162 24.9378 25.8732 25.6772 25.8732C26.3045 25.8732 26.8737 25.7611 27.3756 25.5322C27.4114 25.5143 27.4473 25.5008 27.4831 25.4829C28.4376 25.0387 29.7596 25.3438 30.4228 26.1649C30.49 26.2456 30.49 26.3623 30.4183 26.443C29.9254 27.0084 27.4876 28.2871 25.61 28.2557C24.3642 28.2332 23.2752 27.9865 22.3476 27.4481C21.4155 26.9097 20.6985 26.1783 20.1877 25.2451C19.6768 24.3164 19.4214 23.244 19.4214 22.0326C19.4214 20.8212 19.6679 19.7534 20.1653 18.8201C20.6627 17.8914 21.3483 17.1556 22.2222 16.6172C23.096 16.0788 24.0908 15.8096 25.2111 15.8096C26.3001 15.8096 27.2725 16.0698 28.1284 16.5903C28.9798 17.1107 29.652 17.842 30.1405 18.7798C30.6424 19.7175 30.8888 20.8302 30.8888 22.1179Z" fill="#343434"/>
<path d="M44.7281 18.0665V26.479C44.7281 28.673 44.2127 30.2882 43.1776 31.3247C42.1424 32.3611 40.6457 32.8815 38.6874 32.8815C37.6388 32.8815 36.626 32.7335 35.6536 32.4374C34.8918 32.2041 34.233 31.89 33.6729 31.4862C33.413 31.2977 33.3323 30.9433 33.4892 30.6651C33.9418 29.853 34.9411 29.521 35.7925 29.9024C35.9404 29.9697 36.0927 30.0325 36.2496 30.0908C36.989 30.3645 37.7598 30.4991 38.5574 30.4991C39.7718 30.4991 40.6681 30.194 41.2417 29.5793C41.8153 28.9647 42.1021 28.0404 42.1021 26.7976V26.156C41.7615 26.5598 41.3671 26.8873 40.919 27.1386C40.1572 27.5603 39.3013 27.7757 38.3513 27.7757C37.2758 27.7757 36.3078 27.5289 35.4564 27.0399C34.605 26.5508 33.9283 25.8644 33.4309 24.985C32.9335 24.1101 32.687 23.0871 32.687 21.9205C32.687 20.7405 32.9335 19.7086 33.4309 18.8247C33.9283 17.9408 34.6005 17.2544 35.4564 16.7698C36.3078 16.2853 37.2758 16.043 38.3513 16.043C38.7635 16.043 39.1534 16.0833 39.5298 16.1596C39.9063 16.2359 40.1214 16.6352 39.978 16.9941L39.4402 18.3536C39.4044 18.4478 39.3058 18.5062 39.2027 18.4972C39.0548 18.4792 38.9025 18.4703 38.7456 18.4703C38.0869 18.4703 37.4954 18.6138 36.9711 18.901C36.4468 19.1881 36.039 19.5875 35.7522 20.1034C35.4654 20.6194 35.322 21.2206 35.322 21.9205C35.322 22.5846 35.4654 23.1813 35.7522 23.7018C36.039 24.2222 36.4423 24.6305 36.9711 24.9266C37.4954 25.2228 38.0869 25.3708 38.7456 25.3708C39.4044 25.3708 39.9914 25.2228 40.5067 24.9266C41.0221 24.6305 41.4254 24.2222 41.7122 23.7018C41.999 23.1813 42.1424 22.5846 42.1424 21.9205C42.1424 21.2251 42.2096 17.7703 42.2275 17.7928V16.8326C42.2275 16.4827 42.5099 16.2 42.8594 16.2C43.8901 16.1955 44.7281 17.0345 44.7281 18.0665Z" fill="#343434"/>
<path d="M50.3243 14.4723V27.6273C50.3243 27.9503 50.0599 28.215 49.7372 28.215H48.1823C47.8596 28.215 47.5952 27.9503 47.5952 27.6273V12.9154C47.5952 12.5924 47.8596 12.3276 48.1823 12.3276C49.3653 12.3276 50.3243 13.2878 50.3243 14.4723Z" fill="#343434"/>
<path d="M64.5888 21.9343C64.5888 23.1457 64.3333 24.2135 63.8225 25.1468C63.3116 26.0755 62.6036 26.8113 61.6939 27.3497C60.7842 27.8881 59.758 28.1573 58.6108 28.1573C57.4771 28.1573 56.4598 27.8881 55.5591 27.3497C54.6584 26.8113 53.9459 26.0755 53.4305 25.1378C52.9107 24.2001 52.6553 23.1322 52.6553 21.9388C52.6553 20.7139 52.9152 19.6371 53.4305 18.7173C53.9459 17.7931 54.6539 17.0662 55.5501 16.5278C56.4464 15.9894 57.4681 15.7202 58.6108 15.7202C59.7715 15.7202 60.8021 15.9894 61.7073 16.5278C62.6081 17.0662 63.3161 17.7931 63.827 18.7173C64.3333 19.6326 64.5888 20.7049 64.5888 21.9343ZM61.9493 21.9343C61.9493 21.1626 61.8059 20.4941 61.5191 19.9243C61.2323 19.3589 60.838 18.9192 60.3316 18.6097C59.8297 18.3001 59.2606 18.143 58.6332 18.143C58.0059 18.143 57.4367 18.3001 56.9348 18.6097C56.4329 18.9192 56.0341 19.3589 55.7384 19.9243C55.4426 20.4896 55.2992 21.1626 55.2992 21.9343C55.2992 22.6925 55.4471 23.3611 55.7384 23.9443C56.0341 24.5276 56.4285 24.9718 56.9348 25.2814C57.4367 25.591 57.9969 25.748 58.6153 25.748C59.2606 25.748 59.8342 25.591 60.3361 25.2814C60.838 24.9718 61.2368 24.5231 61.5236 23.9443C61.8059 23.3566 61.9493 22.6881 61.9493 21.9343Z" fill="#343434"/>
<path d="M78.8167 22.0911C78.8167 23.3474 78.5658 24.4377 78.0728 25.3709C77.5754 26.2996 76.9033 27.022 76.0473 27.538C75.1959 28.0539 74.2235 28.3097 73.1301 28.3097C72.1935 28.3097 71.3465 28.0853 70.5892 27.6412C70.1456 27.3764 69.7602 27.0355 69.4375 26.6047V27.7264C69.4375 27.9597 69.2493 28.1526 69.0118 28.1526H67.3627C67.1297 28.1526 66.937 27.9642 66.937 27.7264V11.7358C66.937 11.5025 67.1252 11.3096 67.3627 11.3096H69.1149C69.3479 11.3096 69.5406 11.498 69.5406 11.7358V17.5012C69.8588 17.1109 70.2217 16.7878 70.6295 16.5411C71.3689 16.0969 72.2024 15.8725 73.1256 15.8725C74.2145 15.8725 75.1869 16.1283 76.0429 16.6443C76.8943 17.1602 77.571 17.8871 78.0684 18.8203C78.5658 19.758 78.8167 20.8483 78.8167 22.0911ZM76.1504 22.0911C76.1504 21.3194 76.0025 20.6509 75.7112 20.0811C75.4155 19.5157 75.0211 19.076 74.5237 18.7665C74.0263 18.4569 73.4572 18.2998 72.8119 18.2998C72.198 18.2998 71.6378 18.4569 71.1314 18.7665C70.6295 19.076 70.2307 19.5157 69.935 20.0811C69.6392 20.6464 69.4958 21.3194 69.4958 22.0911C69.4958 22.8494 69.6437 23.5179 69.935 24.1011C70.2307 24.6844 70.6251 25.1286 71.1314 25.4382C71.6333 25.7478 72.1935 25.9048 72.8119 25.9048C73.4572 25.9048 74.0263 25.7478 74.5237 25.4382C75.0211 25.1286 75.4155 24.6799 75.7112 24.1011C76.0025 23.5134 76.1504 22.8449 76.1504 22.0911Z" fill="#343434"/>
<path d="M90.8351 21.0457V27.6726C90.8351 27.9328 90.6244 28.1482 90.3601 28.1482H88.832C88.572 28.1482 88.3569 27.9328 88.3569 27.6726V26.2862C88.3569 26.1471 88.1822 26.0888 88.097 26.2009C87.389 27.1431 86.1343 28.3321 84.8302 28.3097C83.9922 28.2962 83.2573 28.1527 82.6299 27.8431C82.0026 27.5335 81.5141 27.1028 81.1735 26.5509C80.8285 25.999 80.6582 25.3754 80.6582 24.6799C80.6582 23.998 80.8106 23.3878 81.1108 22.8404C81.411 22.2975 81.904 21.8623 82.5896 21.5482C83.2752 21.2297 84.1849 21.0726 85.3187 21.0726H85.4352C85.5383 21.0726 85.6055 21.1758 85.5696 21.2701L84.9288 22.9077C84.9109 22.9571 84.8661 22.993 84.8123 22.9974C84.3059 23.0603 83.9385 23.2038 83.7144 23.4237C83.4007 23.7333 83.2439 24.1236 83.2439 24.5902C83.2439 25.0882 83.4321 25.492 83.8085 25.7927C84.1849 26.0933 84.7092 26.2458 85.3814 26.2458C86.923 26.2503 87.9984 24.1999 88.236 23.5762V20.8887C88.236 20.0586 88.0029 19.4081 87.5324 18.9459C87.0619 18.4838 86.3538 18.255 85.4038 18.255C84.7899 18.255 84.1804 18.3627 83.58 18.5736C83.1677 18.7171 82.7913 18.9056 82.4597 19.1299C82.2222 19.2869 81.8995 19.1972 81.7695 18.9415L81.1735 17.748C81.066 17.5371 81.1332 17.2814 81.3304 17.1423C81.8681 16.7654 82.4776 16.4693 83.1587 16.2584C83.9833 16.0027 84.8437 15.8726 85.7399 15.8726C87.3756 15.8726 88.6348 16.2943 89.5176 17.1423C90.3959 17.9903 90.8351 19.2914 90.8351 21.0457Z" fill="#343434"/>
<path d="M96.3243 14.4723V27.6273C96.3243 27.9503 96.0599 28.215 95.7372 28.215H94.1823C93.8596 28.215 93.5952 27.9503 93.5952 27.6273V12.9154C93.5952 12.5924 93.8596 12.3276 94.1823 12.3276C95.3653 12.3276 96.3243 13.2878 96.3243 14.4723Z" fill="#343434"/>
<path d="M38.7056 14.3831C38.7056 14.3831 72.0279 -4.24572 82.1958 2.66379C87.6988 6.40122 78.817 15.7156 78.817 15.7156" stroke="#343434" stroke-width="1.2" stroke-miterlimit="10"/>
<path d="M19.4347 29.3014C19.4347 29.3014 12.3813 37.0006 15.9259 40.4688C20.4654 44.9106 32.6185 43.1115 48.9615 35.7937C65.3045 28.4759 62.7682 29.3014 62.7682 29.3014" stroke="#343434" stroke-width="1.2" stroke-miterlimit="10"/>
</svg>
